<svg xmlns="http://www.w3.org/2000/svg" width="32" height="48" fill="none" xmlns:v="https://vecta.io/nano"><path fill-rule="evenodd" d="M23.396 23.653c-.043.278-.149.543-.309.775s-.371.424-.616.562c-.494.319-.926.478-1.363.638l-2.946 1.016-2.946 1.015-3.111 1.067a9.18 9.18 0 0 0-2.07 1.229c-.589.533-1.102 1.144-1.527 1.815-.437.745-.712 1.707-.712 2.828 0 2.245.545 3.952 1.638 5.019 1.09 1.124 3.111 1.656 6.106 1.656 3.054 0 5.127-.586 6.222-1.761 1.087-1.175 1.633-2.828 1.633-4.962V23.653h.003zM15.542 0c5.348 0 9.274 1.016 11.78 3.098 2.509 2.031 3.764 4.643 3.764 7.739v26.378c0 1.067-.216 2.242-.596 3.522-.386 1.285-1.147 2.458-2.347 3.522-1.144 1.072-2.725 1.98-4.743 2.674S18.763 48 15.544 48c-3.214 0-5.836-.373-7.852-1.067s-3.599-1.602-4.743-2.674a8.55 8.55 0 0 1-2.345-3.522C.219 39.459 0 38.284 0 37.217v-4.216c0-2.244.599-4.327 1.8-6.145C3 24.99 4.689 23.71 6.872 22.907c1.09-.373 2.345-.745 3.761-1.226l4.036-1.388c1.311-.429 2.455-.859 3.435-1.234.591-.236 1.191-.449 1.8-.638l.982-.481c.386-.213.763-.535 1.147-.962s.707-.905.982-1.44c.291-.579.44-1.219.437-1.867v-1.71c.004-.627-.128-1.247-.386-1.818-.216-.643-.653-1.229-1.252-1.761s-1.419-.962-2.399-1.285c-.982-.316-2.288-.478-3.764-.478-3.054 0-5.073.591-6.163 1.815-.926 1.07-1.471 2.404-1.579 3.898 0 .321-.273.535-.602.535l-6.651.108a.6.6 0 0 1-.602-.591v-1.543c0-1.499.275-2.887.874-4.222s1.53-2.455 2.782-3.419C4.967 2.242 6.605 1.442 8.566.908 10.477.265 12.821 0 15.547 0h-.005z" fill="#0a3871"/></svg>